<svg preserveAspectRatio="xMidYMid meet" overflow="visible" style="display: block;" width="40" height="40" viewBox="0 0 40 40" fill="none" xmlns="http://www.w3.org/2000/svg">
<g id="Edit / Close_Circle">
<path id="Vector" d="M14.2931 14.1471C14.6347 13.0945 15.2604 12.1578 16.1017 11.4388C16.943 10.7198 17.9678 10.2474 19.0607 10.074C20.1537 9.90055 21.2727 10.0326 22.2952 10.4559C23.3177 10.8791 24.2032 11.5773 24.8538 12.4725C25.5044 13.3677 25.8941 14.425 25.981 15.5283C26.068 16.6315 25.848 17.7376 25.3457 18.7236C24.8433 19.7097 24.079 20.537 23.1355 21.1153C22.1919 21.6936 21.1068 21.9996 20.0002 21.9996V23.9996M20.0998 30.0003V30.2003L19.9006 30.1997V30.0003H20.0998ZM22.4924 2.91761L24.9344 4.99865C25.5496 5.52294 26.3135 5.83991 27.1192 5.90421L30.3174 6.15909C32.1977 6.30914 33.6912 7.80173 33.8412 9.68203L34.0955 12.8807C34.1598 13.6865 34.4779 14.4515 35.0022 15.0667L37.0823 17.508C38.3058 18.9437 38.306 21.0555 37.0825 22.4912L35.0024 24.9329C34.4781 25.5481 34.1604 26.3134 34.0961 27.1191L33.8403 30.3173C33.6902 32.1976 32.199 33.6911 30.3187 33.8412L27.1194 34.0964C26.3137 34.1607 25.5491 34.4769 24.9339 35.0012L22.4924 37.0823C21.0568 38.3057 18.9436 38.306 17.508 37.0825L15.0665 35.0014C14.4513 34.4771 13.6867 34.1604 12.8809 34.0961L9.68167 33.8412C7.80138 33.6911 6.31018 32.198 6.16013 30.3177L5.90426 27.1193C5.83996 26.3136 5.52228 25.549 4.998 24.9337L2.91789 22.4913C1.69442 21.0556 1.69385 18.9444 2.91731 17.5088L4.9993 15.0663C5.52358 14.4511 5.83821 13.6865 5.90251 12.8807L6.15837 9.68241C6.30842 7.80211 7.80393 6.30894 9.68422 6.15889L12.88 5.90401C13.6857 5.83971 14.4507 5.523 15.0659 4.99871L17.5082 2.91761C18.9438 1.69413 21.0568 1.69413 22.4924 2.91761Z" stroke="#710D0D" stroke-width="2" stroke-linecap="round" stroke-linejoin="round"/>
</g>
</svg>
