<svg preserveAspectRatio="xMidYMid meet" overflow="visible" style="display: block;" width="36.0014" height="36.0001" viewBox="0 0 36.0014 36.0001" fill="none" xmlns="http://www.w3.org/2000/svg">
<g id="Group">
<path id="Vector" d="M34.8771 36H1.12715C0.785146 36 0.463396 35.847 0.249646 35.577C0.0358964 35.3115 -0.0451036 34.965 0.0291464 34.6297L3.2804 20.0047C3.41765 19.3972 4.02065 19.026 4.62365 19.1497C5.23115 19.287 5.6114 19.8855 5.47865 20.493L2.53115 33.75H33.4754L29.4749 15.75H16.8771C16.2561 15.75 15.7521 15.246 15.7521 14.625C15.7521 14.004 16.2561 13.5 16.8771 13.5H30.3771C30.9036 13.5 31.3626 13.8668 31.4751 14.382L35.9751 34.632C36.0471 34.965 35.9684 35.3137 35.7524 35.5792C35.5409 35.847 35.2169 36 34.8771 36Z" fill="#E9BA6B"/>
<path id="Vector_2" d="M1.12729 35.9997C0.769541 35.9997 0.420791 35.8309 0.200291 35.5137C-0.152959 35.0029 -0.0269586 34.3032 0.483791 33.9499L29.7338 13.6999C30.2378 13.3489 30.9443 13.4704 31.2975 13.9834C31.6508 14.4942 31.5248 15.1962 31.0118 15.5494L1.76179 35.7994C1.57279 35.9367 1.35004 35.9997 1.12729 35.9997Z" fill="#E9BA6B"/>
<path id="Vector_3" d="M34.8774 36.0001C34.6997 36.0001 34.5197 35.9573 34.3509 35.8673L15.2259 25.7423C14.6769 25.4521 14.4677 24.7703 14.7579 24.2213C15.0504 23.6746 15.7299 23.4608 16.2789 23.7556L35.4039 33.8806C35.9507 34.1708 36.1622 34.8526 35.8697 35.4016C35.6717 35.7818 35.2802 36.0001 34.8774 36.0001Z" fill="#E9BA6B"/>
<g id="Group_2">
<path id="Vector_4" d="M7.87744 11.25C6.01669 11.25 4.50244 9.73575 4.50244 7.875C4.50244 6.01425 6.01669 4.5 7.87744 4.5C9.73819 4.5 11.2524 6.01425 11.2524 7.875C11.2524 9.73575 9.73819 11.25 7.87744 11.25ZM7.87744 6.75C7.25644 6.75 6.75244 7.254 6.75244 7.875C6.75244 8.496 7.25644 9 7.87744 9C8.49844 9 9.00244 8.496 9.00244 7.875C9.00244 7.254 8.49844 6.75 7.87744 6.75Z" fill="#E9BA6B"/>
<path id="Vector_5" d="M7.87744 20.25C7.55794 20.25 7.25419 20.1127 7.04044 19.8765C6.32044 19.0755 0.00244141 11.9183 0.00244141 7.875C0.00244141 3.5325 3.53494 0 7.87744 0C12.2199 0 15.7524 3.5325 15.7524 7.875C15.7524 11.9183 9.43444 19.0755 8.71444 19.8765C8.50069 20.1127 8.19694 20.25 7.87744 20.25ZM7.87744 2.25C4.77694 2.25 2.25244 4.7745 2.25244 7.875C2.25244 10.0237 5.42044 14.4967 7.87744 17.4105C10.3344 14.4945 13.5024 10.0215 13.5024 7.875C13.5024 4.7745 10.9779 2.25 7.87744 2.25Z" fill="#E9BA6B"/>
</g>
</g>
</svg>
