<svg preserveAspectRatio="xMidYMid meet" overflow="visible" style="display: block;" width="48" height="48" viewBox="0 0 48 48" fill="none" xmlns="http://www.w3.org/2000/svg">
<g id="Group">
<path id="Vector" d="M34.8153 9.27736C35.35 9.67121 35.8687 10.0989 36.3567 10.5487C36.5426 10.72 36.7785 10.8049 37.0139 10.8049C37.2726 10.8049 37.5307 10.7024 37.7208 10.5C38.0839 10.1134 38.0619 9.50838 37.6716 9.14866C37.1319 8.65126 36.5584 8.17824 35.9669 7.74261C35.539 7.42755 34.9344 7.51561 34.6165 7.93958C34.2984 8.36336 34.3874 8.9623 34.8153 9.27736Z" fill="#E9BA6B"/>
<path id="Vector_2" d="M8.30041 20.5791C5.49444 20.5791 3.21171 22.8406 3.21171 25.6202C3.21171 28.3998 5.49444 30.6613 8.30041 30.6613C11.1064 30.6613 13.3891 28.3998 13.3891 25.6202C13.3891 22.8405 11.1064 20.5791 8.30041 20.5791ZM8.30041 28.7489C6.55897 28.7489 5.14213 27.3453 5.14213 25.6201C5.14213 23.8949 6.55897 22.4914 8.30041 22.4914C10.0418 22.4914 11.4587 23.8949 11.4587 25.6201C11.4587 27.3454 10.0419 28.7489 8.30041 28.7489Z" fill="#E9BA6B"/>
<path id="Vector_3" d="M29.1179 8.22269C29.1179 5.443 26.8351 3.18164 24.0292 3.18164C21.2233 3.18164 18.9404 5.443 18.9404 8.22269C18.9404 11.0024 21.2233 13.2637 24.0292 13.2637C26.8351 13.2637 29.1179 11.0024 29.1179 8.22269ZM20.8709 8.22269C20.8709 6.49756 22.2877 5.09399 24.0292 5.09399C25.7707 5.09399 27.1875 6.49756 27.1875 8.22269C27.1875 9.94782 25.7707 11.3514 24.0292 11.3514C22.2877 11.3514 20.8709 9.94782 20.8709 8.22269Z" fill="#E9BA6B"/>
<path id="Vector_4" d="M43.887 26.4468C44.0121 25.5447 44.0764 24.6278 44.0764 23.7131C44.0764 19.315 42.6565 15.1469 39.9701 11.6591C39.6467 11.2393 39.041 11.1587 38.6173 11.479C38.1934 11.7994 38.1121 12.3993 38.4354 12.8192C40.8629 15.9707 42.146 19.7378 42.146 23.7131C42.146 24.3616 42.1104 25.0112 42.0408 25.6545C41.2977 25.4376 40.5124 25.3191 39.6993 25.3191C35.1222 25.3191 31.3985 29.008 31.3985 33.5422C31.3985 34.857 32.0492 36.7298 33.3363 39.1299C30.5222 40.8062 27.3111 41.6892 24 41.6892C19.2058 41.6892 14.735 39.8795 11.3287 36.5792C11.789 35.9107 12.2854 35.1691 12.7843 34.3872C15.3171 30.4181 16.6015 27.4686 16.6015 25.6204C16.6015 21.0862 12.8778 17.3974 8.30073 17.3974C7.84621 17.3974 7.40067 17.4353 6.96574 17.5052C8.53904 13.2793 11.6959 9.75767 15.7464 7.70171C15.7354 7.87429 15.7279 8.04775 15.7279 8.22301C15.7279 10.0712 17.0122 13.0207 19.5451 16.9898C21.381 19.8667 23.1864 22.2078 23.2624 22.3061C23.445 22.5424 23.7283 22.6809 24.0287 22.6809C24.329 22.6809 24.6123 22.5423 24.7949 22.306C24.8709 22.2078 26.6763 19.8667 28.5123 16.9898C31.0452 13.0207 32.3294 10.0712 32.3294 8.22301C32.3294 3.68883 28.6057 0 24.0287 0C20.4658 0 17.4207 2.23563 16.2459 5.36481C10.6584 7.68574 6.37735 12.4484 4.70464 18.2099C1.92338 19.5396 0 22.3617 0 25.6204C0 27.4686 1.28431 30.4181 3.81712 34.3872C5.65305 37.2642 7.45848 39.6053 7.53445 39.7036C7.71706 39.9398 8.00035 40.0783 8.30073 40.0783C8.6011 40.0783 8.88439 39.9397 9.06701 39.7036C9.10398 39.6557 9.55 39.0773 10.209 38.1659C11.8854 39.7388 13.8019 41.0017 15.921 41.9255C18.4723 43.0376 21.1906 43.6016 24 43.6016C27.6441 43.6016 31.1795 42.6342 34.2824 40.7975C34.5721 41.2837 34.8828 41.7873 35.2157 42.3089C37.0516 45.1859 38.857 47.527 38.933 47.6253C39.1156 47.8615 39.3989 48 39.6993 48C39.9996 48 40.2829 47.8615 40.4656 47.6253C40.5415 47.527 42.3469 45.186 44.1829 42.3089C46.7157 38.3399 48 35.3903 48 33.5422C48 30.5204 46.345 27.876 43.887 26.4468ZM24.0287 1.91235C27.5413 1.91235 30.399 4.7433 30.399 8.22301C30.399 10.9118 26.3271 17.0019 24.0287 20.1251C21.7302 17.0019 17.6584 10.9118 17.6584 8.22301C17.6584 4.7433 20.5161 1.91235 24.0287 1.91235ZM8.30073 37.5224C6.00227 34.3993 1.93042 28.3091 1.93042 25.6204C1.93042 22.1407 4.78813 19.3098 8.30073 19.3098C11.8133 19.3098 14.671 22.1407 14.671 25.6204C14.671 28.3091 10.5992 34.3993 8.30073 37.5224ZM39.6993 45.4442C37.4008 42.3211 33.329 36.2309 33.329 33.5422C33.329 30.0624 36.1867 27.2315 39.6993 27.2315C43.2119 27.2315 46.0696 30.0624 46.0696 33.5422C46.0696 36.2309 41.9977 42.321 39.6993 45.4442Z" fill="#E9BA6B"/>
<path id="Vector_5" d="M39.6989 28.501C36.8929 28.501 34.6102 30.7623 34.6102 33.542C34.6102 36.3217 36.8929 38.5831 39.6989 38.5831C42.5048 38.5831 44.7876 36.3217 44.7876 33.542C44.7876 30.7623 42.5048 28.501 39.6989 28.501ZM39.6989 36.6707C37.9574 36.6707 36.5406 35.2672 36.5406 33.542C36.5406 31.8169 37.9574 30.4133 39.6989 30.4133C41.4403 30.4133 42.8571 31.8169 42.8571 33.542C42.8571 35.2672 41.4403 36.6707 39.6989 36.6707Z" fill="#E9BA6B"/>
</g>
</svg>
